<svg height="512pt" viewBox="-117 0 512 512" width="512pt" xmlns="http://www.w3.org/2000/svg"><path d="m138.667969 512c-5.890625 0-10.667969-4.777344-10.667969-10.667969v-490.664062c0-5.890625 4.777344-10.667969 10.667969-10.667969 5.886719 0 10.664062 4.777344 10.664062 10.667969v490.664062c0 5.890625-4.777343 10.667969-10.664062 10.667969zm0 0"/><path d="m80.042969 245.375c-1.28125 0-2.582031-.234375-3.863281-.722656-46.972657-18.199219-76.179688-54.722656-76.179688-95.320313 0-58.816406 62.207031-106.664062 138.667969-106.664062 76.457031 0 138.664062 47.847656 138.664062 106.664062 0 5.890625-4.777343 10.667969-10.664062 10.667969-5.890625 0-10.667969-4.777344-10.667969-10.667969 0-47.058593-52.628906-85.332031-117.332031-85.332031-64.707031 0-117.335938 38.273438-117.335938 85.332031 0 31.574219 23.980469 60.480469 62.570313 75.4375 5.484375 2.132813 8.214844 8.296875 6.101562 13.78125-1.640625 4.242188-5.671875 6.824219-9.960937 6.824219zm0 0"/><path d="m138.667969 469.332031c-76.460938 0-138.667969-47.847656-138.667969-106.664062 0-5.890625 4.777344-10.667969 10.667969-10.667969 5.886719 0 10.664062 4.777344 10.664062 10.667969 0 47.058593 52.628907 85.332031 117.335938 85.332031 64.703125 0 117.332031-38.273438 117.332031-85.332031 0-31.574219-23.980469-60.480469-62.570312-75.4375-5.484376-2.132813-8.214844-8.296875-6.101563-13.78125 2.132813-5.503907 8.277344-8.234375 13.800781-6.078125 47 18.175781 76.203125 54.699218 76.203125 95.296875 0 58.816406-62.207031 106.664062-138.664062 106.664062zm0 0"/><path d="m197.289062 287.957031c-1.320312 0-2.664062-.253906-3.988281-.769531-30.570312-12.328125-45.035156-17.109375-60.351562-22.164062-14.144531-4.671876-28.777344-9.492188-56.746094-20.371094-5.484375-2.136719-8.214844-8.320313-6.082031-13.804688 2.136718-5.480468 8.300781-8.234375 13.804687-6.058594 27.457031 10.667969 41.8125 15.425782 55.699219 20.011719 15.640625 5.160157 30.421875 10.046875 61.65625 22.632813 5.460938 2.21875 8.105469 8.429687 5.90625 13.867187-1.683594 4.140625-5.695312 6.65625-9.898438 6.65625zm0 0"/></svg>